<?xml version="1.0" encoding="UTF-8" standalone="no"?>
<svg
   xmlns:svg="http://www.w3.org/2000/svg"
   xmlns="http://www.w3.org/2000/svg"
   xmlns:sodipodi="http://sodipodi.sourceforge.net/DTD/sodipodi-0.dtd"
   xmlns:inkscape="http://www.inkscape.org/namespaces/inkscape"
   sodipodi:docname="swap.svg"
   inkscape:version="1.1-dev (a41a1eaca7, 2020-05-21)"
   id="svg826"
   version="1.1"
   viewBox="0 0 12.7 7.6358795"
   height="7.6358795mm"
   width="12.7mm">
  <defs
     id="defs822">
    <clipPath
       id="clipPath1004"
       clipPathUnits="userSpaceOnUse">
      <rect
         y="63.712425"
         x="29.168919"
         height="9.3014288"
         width="12.693817"
         id="rect1006"
         style="fill:#ffffff;stroke-width:0.264583" />
    </clipPath>
    <clipPath
       id="clipPath1010"
       clipPathUnits="userSpaceOnUse">
      <rect
         y="65.370369"
         x="29.167076"
         height="7.6281543"
         width="12.732542"
         id="rect1012"
         style="fill:#ffffff;stroke-width:0.264449" />
    </clipPath>
  </defs>
  <sodipodi:namedview
     inkscape:window-maximized="1"
     inkscape:window-y="28"
     inkscape:window-x="0"
     inkscape:window-height="941"
     inkscape:window-width="1920"
     fit-margin-bottom="0"
     fit-margin-right="0"
     fit-margin-left="0"
     fit-margin-top="0"
     showgrid="false"
     inkscape:current-layer="layer1"
     inkscape:document-units="mm"
     inkscape:cy="16.399893"
     inkscape:cx="47.874661"
     inkscape:zoom="11.2"
     inkscape:pageshadow="2"
     inkscape:pageopacity="0.0"
     borderopacity="1.0"
     bordercolor="#666666"
     pagecolor="#ffffff"
     id="base" />
  <g
     transform="translate(-51.580826,-53.20198)"
     id="layer1"
     inkscape:groupmode="layer"
     inkscape:label="Layer 1">
    <path
       style="fill:#fe0000;stroke-width:0.264716;fill-opacity:1"
       d="m 55.120777,210.98602 c -0.102467,-0.16596 0.467693,-0.94441 1.307302,-1.78486 l 1.489026,-1.49053 1.513302,1.51483 c 1.1933,1.19451 1.444837,1.58336 1.189529,1.83893 -0.255308,0.25557 -0.57531,0.077 -1.513302,-0.84451 l -1.189529,-1.16863 -1.134494,1.11456 c -1.216156,1.19477 -1.380498,1.27589 -1.661834,0.82021 z m 1.325867,-11.38383 c -0.09833,-0.15925 0.336156,-0.81476 0.965515,-1.45668 l 1.144289,-1.16712 -1.167434,-1.19073 c -0.92057,-0.93894 -1.09897,-1.25927 -0.843662,-1.51484 0.255308,-0.25557 0.643119,-0.004 1.833974,1.18763 l 1.510201,1.51173 -1.440193,1.45979 c -1.505986,1.52647 -1.709368,1.64531 -2.00269,1.17022 z m -1.22898,-12.60923 0.391921,-1.74887 -1.275768,-1.10788 c -1.239557,-1.07644 -1.2575,-1.11278 -0.632177,-1.28022 0.353975,-0.0948 1.131686,-0.17396 1.728249,-0.17596 1.078355,-0.004 1.088322,-0.0128 1.715212,-1.59272 0.346804,-0.87401 0.694206,-1.58911 0.772004,-1.58911 0.0778,0 0.4252,0.7151 0.772004,1.58911 0.62689,1.57987 0.636857,1.58913 1.715212,1.59272 0.596563,0.002 1.374274,0.0812 1.728249,0.17596 0.62446,0.16721 0.605091,0.20577 -0.651638,1.29711 l -1.295228,1.12479 0.414364,1.73357 0.414364,1.73356 -0.556476,-0.29511 c -0.306062,-0.1623 -1.00296,-0.57577 -1.548664,-0.91881 l -0.992187,-0.62371 -0.992188,0.62371 c -2.244711,1.41106 -2.150709,1.44069 -1.707253,-0.53814 z m 1.874529,-0.27681 c 0.771961,-0.4435 0.844468,-0.44173 1.742815,0.0425 0.515539,0.27792 0.992936,0.44967 1.060882,0.38165 0.06795,-0.068 0.0014,-0.56633 -0.147792,-1.10734 -0.254221,-0.92165 -0.220355,-1.02661 0.537048,-1.66457 0.965782,-0.81348 0.84005,-1.16231 -0.418929,-1.16231 -0.834221,0 -0.975771,-0.10891 -1.373448,-1.05672 -0.243855,-0.58119 -0.502904,-1.05671 -0.575664,-1.05671 -0.07276,0 -0.331809,0.47552 -0.575664,1.05671 -0.397677,0.94781 -0.539227,1.05672 -1.373448,1.05672 -1.260479,0 -1.384535,0.34898 -0.414497,1.16604 0.626447,0.52765 0.773457,0.82164 0.641174,1.28218 -0.0944,0.32866 -0.229743,0.80613 -0.300764,1.06105 -0.163437,0.58664 0.17808,0.58686 1.198287,7.9e-4 z m -0.760506,-40.18982 c -1.124116,-1.1394 -1.365562,-1.52412 -1.114345,-1.7756 0.251218,-0.25147 0.578441,-0.0679 1.510234,0.84759 l 1.189529,1.16861 1.189529,-1.16861 c 0.931793,-0.91542 1.259016,-1.09906 1.510234,-0.84759 0.251217,0.25148 0.0098,0.6362 -1.114345,1.7756 -0.789278,0.80002 -1.502716,1.45457 -1.585418,1.45457 -0.0827,0 -0.79614,-0.65455 -1.585418,-1.45457 z m -1.737845,-9.9599 c -0.09911,-0.16052 0.452702,-0.93152 1.232118,-1.72153 l 1.41161,-1.43082 -1.435049,-1.45457 c -1.1266,-1.14192 -1.3659,-1.52379 -1.113333,-1.77662 0.252568,-0.25282 0.634047,-0.0133 1.774817,1.11446 l 1.4531,1.4365 1.4531,-1.4365 c 1.14077,-1.12774 1.522249,-1.36728 1.774817,-1.11446 0.252567,0.25283 0.01327,0.6347 -1.113333,1.77662 l -1.435049,1.45457 1.435049,1.45457 c 1.1266,1.14193 1.3659,1.5238 1.113333,1.77662 -0.252568,0.25282 -0.634047,0.0133 -1.774817,-1.11447 l -1.4531,-1.4365 -1.397382,1.38143 c -1.478001,1.46112 -1.640398,1.55309 -1.925881,1.0907 z m 2.000346,-15.73278 -1.16851,-1.19183 h 2.491427 2.491427 l -1.16851,1.19183 c -0.642681,0.6555 -1.237993,1.19183 -1.322917,1.19183 -0.08492,0 -0.680236,-0.53633 -1.322917,-1.19183 z m -3.439583,-8.94305 c 0,-0.74971 0.398223,-1.26259 2.98584,-3.84548 l 2.98584,-2.98038 0.846538,0.87429 0.846537,0.87429 -2.976622,2.97118 c -2.563106,2.55843 -3.095504,2.97118 -3.832377,2.97118 -0.789956,0 -0.855756,-0.0665 -0.855756,-0.86508 z m 7.455128,-6.63484 -0.848082,-0.8759 0.614663,-0.57803 0.614664,-0.57803 0.848082,0.87589 0.848083,0.87588 -0.614664,0.57804 -0.614663,0.57802 z m -5.392069,-7.252828 0.391921,-1.74887 -1.275768,-1.10788 c -1.239557,-1.07644 -1.2575,-1.11278 -0.632177,-1.28022 0.353975,-0.0948 1.131686,-0.17396 1.728249,-0.17596 1.078355,-0.004 1.088322,-0.0128 1.715212,-1.59272 0.346804,-0.87401 0.694206,-1.5891 0.772004,-1.5891 0.0778,0 0.4252,0.71509 0.772004,1.5891 0.62689,1.57987 0.636857,1.58913 1.715212,1.59272 0.596563,0.002 1.374274,0.0812 1.728249,0.17596 0.62446,0.16721 0.605091,0.20577 -0.651638,1.29711 l -1.295228,1.12479 0.414364,1.73357 0.414364,1.73356 -0.556476,-0.29511 c -0.306062,-0.1623 -1.00296,-0.57577 -1.548664,-0.91881 l -0.992187,-0.62371 -0.992188,0.62371 c -2.244711,1.41106 -2.150709,1.44069 -1.707253,-0.53814 z m 2.167212,-13.98672 -1.440193,-1.45978 1.510201,-1.51173 c 1.190855,-1.19206 1.578666,-1.4432 1.833974,-1.18763 0.255308,0.25557 0.07691,0.57589 -0.843662,1.51483 l -1.167434,1.19074 1.144289,1.16712 c 0.990479,1.01025 1.241205,1.74624 0.59488,1.74624 -0.105523,0 -0.839948,-0.6569 -1.632055,-1.45979 z m -3.162534,-24.349916 -0.916639,-0.95027 0.982784,-0.983779 0.982785,-0.983779 v 0.723927 c 0,0.719722 0.01075,0.723926 1.852083,0.723926 1.675694,0 1.852083,0.05045 1.852083,0.529701 0,0.478772 -0.176389,0.529704 -1.834509,0.529704 -1.771847,0 -1.837368,0.02323 -1.918229,0.680421 l -0.08372,0.680418 z m 6.340596,-2.864858 c 0,-0.719722 -0.01076,-0.723927 -1.852083,-0.723927 -1.675694,0 -1.852083,-0.05045 -1.852083,-0.529703 0,-0.479253 0.176389,-0.529702 1.852083,-0.529702 1.841328,0 1.852083,-0.0042 1.852083,-0.723926 v -0.723928 l 0.987778,0.988779 0.987778,0.988777 -0.987778,0.988777 -0.987778,0.988779 z m -1.5875,-20.978249 c 0,-0.214761 0.362453,-0.578097 0.805451,-0.807412 2.443206,-1.26471 2.443206,-5.344457 0,-6.609168 -0.442998,-0.229315 -0.805451,-0.59265 -0.805451,-0.807412 0,-0.485723 0.106324,-0.486 1.039957,-0.0027 1.832341,0.948501 2.912247,3.268459 2.402866,5.162071 -0.329507,1.224936 -1.343021,2.518722 -2.402866,3.067345 -0.933633,0.483289 -1.039957,0.483012 -1.039957,-0.0027 z m -2.38125,-1.331057 c -1.02525,-1.045712 -1.307727,-1.191831 -2.304046,-1.191831 h -1.135537 v -1.589108 -1.589107 h 1.115391 c 0.973923,0 1.275944,-0.1583 2.38125,-1.248088 l 1.265859,-1.248087 v 4.029025 c 0,2.215965 -0.03474,4.029026 -0.0772,4.029026 -0.04246,0 -0.603033,-0.536323 -1.245714,-1.19183 z m 2.38125,-2.780939 c 0,-2.060068 0.333367,-2.387738 0.943094,-0.92698 0.339511,0.813388 0.339511,1.040572 0,1.85396 -0.609727,1.460759 -0.943094,1.133088 -0.943094,-0.92698 z"
       id="path972" />
  </g>
</svg>
